# xmcd CD database file
#
# Track frame offsets:
#	150
#	12837
#	25075
#	39137
#	53412
#	67087
#	77075
#	88362
#	101750
#	113622
#	127197
#	138275
#	149712
#	160975
#	173162
#	188437
#	201112
#	214737
#	226982
#	241150
#
# Disc length: 3392 seconds
#
# Revision: 4
# Processed by: cddbd v1.5.1PL0 Copyright (c) Steve Scherf et al.
# Submitted via: CDex 1.51
#
DISCID=0e0d3e14
DTITLE=Various Artist - Living the Blues - 1950-1952 Blues CLASSICS
DYEAR=1997
DGENRE=Blues
TTITLE0=Jackie Brenston - Rocket 88
TTITLE1=Howlin' Wolf - How Many More Years
TTITLE2=John Lee Hooker - I'm in the Mood
TTITLE3=Willie Mabon - I don't Know
TTITLE4=B. B. King - Three O'Clock Blues
TTITLE5=Fats Domino - Goin Home
TTITLE6=Piano Red - Rockin' with Red
TTITLE7=Rosco Gordon - No More Doggin'
TTITLE8=Dinah Washington - New Blowtop Blues
TTITLE9=Roy Brown - Hard Luck Blues
TTITLE10=Wynonie Harris - Lovin' Machine
TTITLE11=B. B. King - She's Dynamite
TTITLE12=Peppermint Harris - I got Loaded
TTITLE13=Tiny Bradshaw - Well Oh Well
TTITLE14=Big Joe Turner - Chains of Love
TTITLE15=Little Esther - Double Crossing Blues
TTITLE16=Muddy Waters - Rollin' and Tumblin'
TTITLE17=Marie Adams - I'm Gonna Play the Honky Tonks
TTITLE18=Jimmy Nelson - T-99
TTITLE19=Floyd Dixon - Call Operator 210
EXTD=YEAR: 1997
EXTT0=
EXTT1=
EXTT2=
EXTT3=
EXTT4=
EXTT5=
EXTT6=
EXTT7=
EXTT8=
EXTT9=
EXTT10=
EXTT11=
EXTT12=
EXTT13=
EXTT14=
EXTT15=
EXTT16=
EXTT17=
EXTT18=
EXTT19=
PLAYORDER=
